<svg xmlns="http://www.w3.org/2000/svg" xmlns:xlink="http://www.w3.org/1999/xlink" width="500" zoomAndPan="magnify" viewBox="0 0 375 374.999991" height="500" preserveAspectRatio="xMidYMid meet" version="1.0">

<defs>
<clipPath id="e20a47f6a2">
<path d="M 30 37.5 L 345 37.5 L 345 307.5 L 30 307.5 Z M 30 37.5 " clip-rule="nonzero"/>
</clipPath>
<clipPath id="582b91b3a8">
<path d="M 75 37.5 L 300 37.5 C 324.851562 37.5 345 57.648438 345 82.5 L 345 262.5 C 345 287.351562 324.851562 307.5 300 307.5 L 75 307.5 C 50.148438 307.5 30 287.351562 30 262.5 L 30 82.5 C 30 57.648438 50.148438 37.5 75 37.5 Z M 75 37.5 " clip-rule="nonzero"/>
</clipPath>
<clipPath id="8ae09e67d1">
<path d="M 105 95.800781 L 135 95.800781 L 135 125.917969 L 105 125.917969 Z M 105 95.800781 " clip-rule="nonzero"/>
</clipPath>
<clipPath id="6cc9b41111">
<path d="M 117 95.917969 L 123 95.917969 C 129.628906 95.917969 135 101.289062 135 107.917969 L 135 113.917969 C 135 120.542969 129.628906 125.917969 123 125.917969 L 117 125.917969 C 110.371094 125.917969 105 120.542969 105 113.917969 L 105 107.917969 C 105 101.289062 110.371094 95.917969 117 95.917969 Z M 117 95.917969 " clip-rule="nonzero"/>
</clipPath>
<clipPath id="3bf499f035">
<path d="M 150 95.800781 L 180 95.800781 L 180 125.917969 L 150 125.917969 Z M 150 95.800781 " clip-rule="nonzero"/>
</clipPath>
<clipPath id="1589d3591c">
<path d="M 162 95.917969 L 168 95.917969 C 174.628906 95.917969 180 101.289062 180 107.917969 L 180 113.917969 C 180 120.542969 174.628906 125.917969 168 125.917969 L 162 125.917969 C 155.371094 125.917969 150 120.542969 150 113.917969 L 150 107.917969 C 150 101.289062 155.371094 95.917969 162 95.917969 Z M 162 95.917969 " clip-rule="nonzero"/>
</clipPath>
<clipPath id="c323450715">
<path d="M 195 95.800781 L 225 95.800781 L 225 125.917969 L 195 125.917969 Z M 195 95.800781 " clip-rule="nonzero"/>
</clipPath>
<clipPath id="8ec2f118b5">
<path d="M 207 95.917969 L 213 95.917969 C 219.628906 95.917969 225 101.289062 225 107.917969 L 225 113.917969 C 225 120.542969 219.628906 125.917969 213 125.917969 L 207 125.917969 C 200.371094 125.917969 195 120.542969 195 113.917969 L 195 107.917969 C 195 101.289062 200.371094 95.917969 207 95.917969 Z M 207 95.917969 " clip-rule="nonzero"/>
</clipPath>
<clipPath id="df9b251891">
<path d="M 105 140.917969 L 135 140.917969 L 135 170.917969 L 105 170.917969 Z M 105 140.917969 " clip-rule="nonzero"/>
</clipPath>
<clipPath id="4f9bb866fd">
<path d="M 117 140.917969 L 123 140.917969 C 129.628906 140.917969 135 146.289062 135 152.917969 L 135 158.917969 C 135 165.542969 129.628906 170.917969 123 170.917969 L 117 170.917969 C 110.371094 170.917969 105 165.542969 105 158.917969 L 105 152.917969 C 105 146.289062 110.371094 140.917969 117 140.917969 Z M 117 140.917969 " clip-rule="nonzero"/>
</clipPath>
<clipPath id="f4d7965a1e">
<path d="M 150 140.800781 L 180 140.800781 L 180 170.917969 L 150 170.917969 Z M 150 140.800781 " clip-rule="nonzero"/>
</clipPath>
<clipPath id="9386731e4d">
<path d="M 162 140.917969 L 168 140.917969 C 174.628906 140.917969 180 146.289062 180 152.917969 L 180 158.917969 C 180 165.542969 174.628906 170.917969 168 170.917969 L 162 170.917969 C 155.371094 170.917969 150 165.542969 150 158.917969 L 150 152.917969 C 150 146.289062 155.371094 140.917969 162 140.917969 Z M 162 140.917969 " clip-rule="nonzero"/>
</clipPath>
<clipPath id="73e55224e1">
<path d="M 195 140.800781 L 225 140.800781 L 225 170.917969 L 195 170.917969 Z M 195 140.800781 " clip-rule="nonzero"/>
</clipPath>
<clipPath id="2a3ed8a1e2">
<path d="M 207 140.917969 L 213 140.917969 C 219.628906 140.917969 225 146.289062 225 152.917969 L 225 158.917969 C 225 165.542969 219.628906 170.917969 213 170.917969 L 207 170.917969 C 200.371094 170.917969 195 165.542969 195 158.917969 L 195 152.917969 C 195 146.289062 200.371094 140.917969 207 140.917969 Z M 207 140.917969 " clip-rule="nonzero"/>
</clipPath>
<clipPath id="1a26cef41f">
<path d="M 105 185.800781 L 135 185.800781 L 135 215.917969 L 105 215.917969 Z M 105 185.800781 " clip-rule="nonzero"/>
</clipPath>
<clipPath id="d2f2cc55d3">
<path d="M 117 185.917969 L 123 185.917969 C 129.628906 185.917969 135 191.289062 135 197.917969 L 135 203.917969 C 135 210.542969 129.628906 215.917969 123 215.917969 L 117 215.917969 C 110.371094 215.917969 105 210.542969 105 203.917969 L 105 197.917969 C 105 191.289062 110.371094 185.917969 117 185.917969 Z M 117 185.917969 " clip-rule="nonzero"/>
</clipPath>
<clipPath id="eef5d56cb4">
<path d="M 150 185.800781 L 180 185.800781 L 180 215.917969 L 150 215.917969 Z M 150 185.800781 " clip-rule="nonzero"/>
</clipPath>
<clipPath id="40ef190ac6">
<path d="M 162 185.917969 L 168 185.917969 C 174.628906 185.917969 180 191.289062 180 197.917969 L 180 203.917969 C 180 210.542969 174.628906 215.917969 168 215.917969 L 162 215.917969 C 155.371094 215.917969 150 210.542969 150 203.917969 L 150 197.917969 C 150 191.289062 155.371094 185.917969 162 185.917969 Z M 162 185.917969 " clip-rule="nonzero"/>
</clipPath>
<clipPath id="a76a05480f">
<path d="M 195 185.917969 L 225 185.917969 L 225 215.917969 L 195 215.917969 Z M 195 185.917969 " clip-rule="nonzero"/>
</clipPath>
<clipPath id="df8c6b9a09">
<path d="M 207 185.917969 L 213 185.917969 C 219.628906 185.917969 225 191.289062 225 197.917969 L 225 203.917969 C 225 210.542969 219.628906 215.917969 213 215.917969 L 207 215.917969 C 200.371094 215.917969 195 210.542969 195 203.917969 L 195 197.917969 C 195 191.289062 200.371094 185.917969 207 185.917969 Z M 207 185.917969 " clip-rule="nonzero"/>
</clipPath>
<clipPath id="b264df88a3">
<path d="M 240 95.800781 L 270 95.800781 L 270 125.917969 L 240 125.917969 Z M 240 95.800781 " clip-rule="nonzero"/>
</clipPath>
<clipPath id="41eae1a322">
<path d="M 252 95.917969 L 258 95.917969 C 264.628906 95.917969 270 101.289062 270 107.917969 L 270 113.917969 C 270 120.542969 264.628906 125.917969 258 125.917969 L 252 125.917969 C 245.371094 125.917969 240 120.542969 240 113.917969 L 240 107.917969 C 240 101.289062 245.371094 95.917969 252 95.917969 Z M 252 95.917969 " clip-rule="nonzero"/>
</clipPath>
<clipPath id="0c62d6077e">
<path d="M 285 95.917969 L 315 95.917969 L 315 125.917969 L 285 125.917969 Z M 285 95.917969 " clip-rule="nonzero"/>
</clipPath>
<clipPath id="68698e077e">
<path d="M 297 95.917969 L 303 95.917969 C 309.628906 95.917969 315 101.289062 315 107.917969 L 315 113.917969 C 315 120.542969 309.628906 125.917969 303 125.917969 L 297 125.917969 C 290.371094 125.917969 285 120.542969 285 113.917969 L 285 107.917969 C 285 101.289062 290.371094 95.917969 297 95.917969 Z M 297 95.917969 " clip-rule="nonzero"/>
</clipPath>
<clipPath id="b5d3411930">
<path d="M 240 140.800781 L 270 140.800781 L 270 170.917969 L 240 170.917969 Z M 240 140.800781 " clip-rule="nonzero"/>
</clipPath>
<clipPath id="de94aefb39">
<path d="M 252 140.917969 L 258 140.917969 C 264.628906 140.917969 270 146.289062 270 152.917969 L 270 158.917969 C 270 165.542969 264.628906 170.917969 258 170.917969 L 252 170.917969 C 245.371094 170.917969 240 165.542969 240 158.917969 L 240 152.917969 C 240 146.289062 245.371094 140.917969 252 140.917969 Z M 252 140.917969 " clip-rule="nonzero"/>
</clipPath>
<clipPath id="aa29bb9734">
<path d="M 285 140.800781 L 315 140.800781 L 315 170.917969 L 285 170.917969 Z M 285 140.800781 " clip-rule="nonzero"/>
</clipPath>
<clipPath id="ae7f8ac0de">
<path d="M 297 140.917969 L 303 140.917969 C 309.628906 140.917969 315 146.289062 315 152.917969 L 315 158.917969 C 315 165.542969 309.628906 170.917969 303 170.917969 L 297 170.917969 C 290.371094 170.917969 285 165.542969 285 158.917969 L 285 152.917969 C 285 146.289062 290.371094 140.917969 297 140.917969 Z M 297 140.917969 " clip-rule="nonzero"/>
</clipPath>
<clipPath id="dadad7dbdc">
<path d="M 240 185.800781 L 270 185.800781 L 270 215.917969 L 240 215.917969 Z M 240 185.800781 " clip-rule="nonzero"/>
</clipPath>
<clipPath id="0607c8f620">
<path d="M 252 185.917969 L 258 185.917969 C 264.628906 185.917969 270 191.289062 270 197.917969 L 270 203.917969 C 270 210.542969 264.628906 215.917969 258 215.917969 L 252 215.917969 C 245.371094 215.917969 240 210.542969 240 203.917969 L 240 197.917969 C 240 191.289062 245.371094 185.917969 252 185.917969 Z M 252 185.917969 " clip-rule="nonzero"/>
</clipPath>
<clipPath id="276e61c896">
<path d="M 285 185.800781 L 315 185.800781 L 315 215.917969 L 285 215.917969 Z M 285 185.800781 " clip-rule="nonzero"/>
</clipPath>
<clipPath id="606e554053">
<path d="M 297 185.917969 L 303 185.917969 C 309.628906 185.917969 315 191.289062 315 197.917969 L 315 203.917969 C 315 210.542969 309.628906 215.917969 303 215.917969 L 297 215.917969 C 290.371094 215.917969 285 210.542969 285 203.917969 L 285 197.917969 C 285 191.289062 290.371094 185.917969 297 185.917969 Z M 297 185.917969 " clip-rule="nonzero"/>
</clipPath>
<clipPath id="b7a3308e08">
<path d="M 60 95.800781 L 90 95.800781 L 90 125.917969 L 60 125.917969 Z M 60 95.800781 " clip-rule="nonzero"/>
</clipPath>
<clipPath id="065ce6011c">
<path d="M 72 95.917969 L 78 95.917969 C 84.628906 95.917969 90 101.289062 90 107.917969 L 90 113.917969 C 90 120.542969 84.628906 125.917969 78 125.917969 L 72 125.917969 C 65.371094 125.917969 60 120.542969 60 113.917969 L 60 107.917969 C 60 101.289062 65.371094 95.917969 72 95.917969 Z M 72 95.917969 " clip-rule="nonzero"/>
</clipPath>
<clipPath id="082d56d78a">
<path d="M 60 140.800781 L 90 140.800781 L 90 170.917969 L 60 170.917969 Z M 60 140.800781 " clip-rule="nonzero"/>
</clipPath>
<clipPath id="c425b0c894">
<path d="M 72 140.917969 L 78 140.917969 C 84.628906 140.917969 90 146.289062 90 152.917969 L 90 158.917969 C 90 165.542969 84.628906 170.917969 78 170.917969 L 72 170.917969 C 65.371094 170.917969 60 165.542969 60 158.917969 L 60 152.917969 C 60 146.289062 65.371094 140.917969 72 140.917969 Z M 72 140.917969 " clip-rule="nonzero"/>
</clipPath>
<clipPath id="14413ae12d">
<path d="M 60 185.800781 L 90 185.800781 L 90 215.917969 L 60 215.917969 Z M 60 185.800781 " clip-rule="nonzero"/>
</clipPath>
<clipPath id="93fc62d110">
<path d="M 72 185.917969 L 78 185.917969 C 84.628906 185.917969 90 191.289062 90 197.917969 L 90 203.917969 C 90 210.542969 84.628906 215.917969 78 215.917969 L 72 215.917969 C 65.371094 215.917969 60 210.542969 60 203.917969 L 60 197.917969 C 60 191.289062 65.371094 185.917969 72 185.917969 Z M 72 185.917969 " clip-rule="nonzero"/>
</clipPath>
<clipPath id="6aa5053e89">
<path d="M 105 230.800781 L 135 230.800781 L 135 260.917969 L 105 260.917969 Z M 105 230.800781 " clip-rule="nonzero"/>
</clipPath>
<clipPath id="9384c869e0">
<path d="M 117 230.917969 L 123 230.917969 C 129.628906 230.917969 135 236.289062 135 242.917969 L 135 248.917969 C 135 255.542969 129.628906 260.917969 123 260.917969 L 117 260.917969 C 110.371094 260.917969 105 255.542969 105 248.917969 L 105 242.917969 C 105 236.289062 110.371094 230.917969 117 230.917969 Z M 117 230.917969 " clip-rule="nonzero"/>
</clipPath>
<clipPath id="0ec5689c41">
<path d="M 150 230.800781 L 180 230.800781 L 180 260.917969 L 150 260.917969 Z M 150 230.800781 " clip-rule="nonzero"/>
</clipPath>
<clipPath id="dad170f847">
<path d="M 162 230.917969 L 168 230.917969 C 174.628906 230.917969 180 236.289062 180 242.917969 L 180 248.917969 C 180 255.542969 174.628906 260.917969 168 260.917969 L 162 260.917969 C 155.371094 260.917969 150 255.542969 150 248.917969 L 150 242.917969 C 150 236.289062 155.371094 230.917969 162 230.917969 Z M 162 230.917969 " clip-rule="nonzero"/>
</clipPath>
<clipPath id="bec815ab11">
<path d="M 195 230.800781 L 225 230.800781 L 225 260.917969 L 195 260.917969 Z M 195 230.800781 " clip-rule="nonzero"/>
</clipPath>
<clipPath id="a1dd622056">
<path d="M 207 230.917969 L 213 230.917969 C 219.628906 230.917969 225 236.289062 225 242.917969 L 225 248.917969 C 225 255.542969 219.628906 260.917969 213 260.917969 L 207 260.917969 C 200.371094 260.917969 195 255.542969 195 248.917969 L 195 242.917969 C 195 236.289062 200.371094 230.917969 207 230.917969 Z M 207 230.917969 " clip-rule="nonzero"/>
</clipPath>
<clipPath id="6a5a1bc177">
<path d="M 240 230.800781 L 270 230.800781 L 270 260.917969 L 240 260.917969 Z M 240 230.800781 " clip-rule="nonzero"/>
</clipPath>
<clipPath id="3b1d8f2afd">
<path d="M 252 230.917969 L 258 230.917969 C 264.628906 230.917969 270 236.289062 270 242.917969 L 270 248.917969 C 270 255.542969 264.628906 260.917969 258 260.917969 L 252 260.917969 C 245.371094 260.917969 240 255.542969 240 248.917969 L 240 242.917969 C 240 236.289062 245.371094 230.917969 252 230.917969 Z M 252 230.917969 " clip-rule="nonzero"/>
</clipPath>
<clipPath id="9637e7d22c">
<path d="M 285 230.800781 L 315 230.800781 L 315 260.917969 L 285 260.917969 Z M 285 230.800781 " clip-rule="nonzero"/>
</clipPath>
<clipPath id="92e4e92ae9">
<path d="M 297 230.917969 L 303 230.917969 C 309.628906 230.917969 315 236.289062 315 242.917969 L 315 248.917969 C 315 255.542969 309.628906 260.917969 303 260.917969 L 297 260.917969 C 290.371094 260.917969 285 255.542969 285 248.917969 L 285 242.917969 C 285 236.289062 290.371094 230.917969 297 230.917969 Z M 297 230.917969 " clip-rule="nonzero"/>
</clipPath>
<clipPath id="440f88b97f">
<path d="M 60 230.800781 L 90 230.800781 L 90 260.917969 L 60 260.917969 Z M 60 230.800781 " clip-rule="nonzero"/>
</clipPath>
<clipPath id="e05e1949d2">
<path d="M 72 230.917969 L 78 230.917969 C 84.628906 230.917969 90 236.289062 90 242.917969 L 90 248.917969 C 90 255.542969 84.628906 260.917969 78 260.917969 L 72 260.917969 C 65.371094 260.917969 60 255.542969 60 248.917969 L 60 242.917969 C 60 236.289062 65.371094 230.917969 72 230.917969 Z M 72 230.917969 " clip-rule="nonzero"/>
</clipPath>
</defs>
<g clip-path="url(#e20a47f6a2)">
<g clip-path="url(#582b91b3a8)">
<path stroke-linecap="butt" transform="matrix(0.75, 0, 0, 0.75, 30.000006, 37.499998)" fill="none" stroke-linejoin="miter" d="M 59.999996 0.00000328333 L 360.000015 0.00000328333 C 393.135434 0.00000328333 420.000019 26.864588 420.000019 60.000007 L 420.000019 300.000023 C 420.000019 333.135442 393.135434 360.000027 360.000015 360.000027 L 59.999996 360.000027 C 26.864577 360.000027 -0.00000817333 333.135442 -0.00000817333 300.000023 L -0.00000817333 60.000007 C -0.00000817333 26.864588 26.864577 0.00000328333 59.999996 0.00000328333 Z M 59.999996 0.00000328333 " stroke="#FCDDF2" stroke-width="40" stroke-opacity="1" stroke-miterlimit="4"/>
</g>
</g>
<path stroke-linecap="round" transform="matrix(0, 0.75, -0.75, 0, 194.999992, 18.749999)" fill="none" stroke-linejoin="miter" d="M 10.000002 9.99999 L 50.000005 9.99999 " stroke="#FCDDF2" stroke-width="20" stroke-opacity="1" stroke-miterlimit="4"/>
<path stroke-linecap="round" transform="matrix(0, 0.75, -0.75, 0, 284.999986, 18.749999)" fill="none" stroke-linejoin="miter" d="M 10.000002 9.999982 L 50.000005 9.999982 " stroke="#FCDDF2" stroke-width="20" stroke-opacity="1" stroke-miterlimit="4"/>
<path stroke-linecap="round" transform="matrix(0, 0.75, -0.75, 0, 104.999998, 18.749999)" fill="none" stroke-linejoin="miter" d="M 10.000002 9.999997 L 50.000005 9.999997 " stroke="#FCDDF2" stroke-width="20" stroke-opacity="1" stroke-miterlimit="4"/>
<path stroke-linecap="round" transform="matrix(0, 0.75, -0.75, 0, 149.999995, 18.749999)" fill="none" stroke-linejoin="miter" d="M 10.000002 9.999994 L 50.000005 9.999994 " stroke="#FCDDF2" stroke-width="20" stroke-opacity="1" stroke-miterlimit="4"/>
<path stroke-linecap="round" transform="matrix(0, 0.75, -0.75, 0, 239.999989, 18.749999)" fill="none" stroke-linejoin="miter" d="M 10.000002 9.999986 L 50.000005 9.999986 " stroke="#FCDDF2" stroke-width="20" stroke-opacity="1" stroke-miterlimit="4"/>
<g clip-path="url(#8ae09e67d1)">
<g clip-path="url(#6cc9b41111)">
<path fill="#E1AC74" d="M 105 95.917969 L 135 95.917969 L 135 125.917969 L 105 125.917969 Z M 105 95.917969 " fill-opacity="1" fill-rule="nonzero"/>
</g>
</g>
<g clip-path="url(#3bf499f035)">
<g clip-path="url(#1589d3591c)">
<path fill="#E1AC74" d="M 150 95.917969 L 180 95.917969 L 180 125.917969 L 150 125.917969 Z M 150 95.917969 " fill-opacity="1" fill-rule="nonzero"/>
</g>
</g>
<g clip-path="url(#c323450715)">
<g clip-path="url(#8ec2f118b5)">
<path fill="#E1AC74" d="M 195 95.917969 L 225 95.917969 L 225 125.917969 L 195 125.917969 Z M 195 95.917969 " fill-opacity="1" fill-rule="nonzero"/>
</g>
</g>
<g clip-path="url(#df9b251891)">
<g clip-path="url(#4f9bb866fd)">
<path stroke-linecap="butt" transform="matrix(0.75, 0, 0, 0.75, 104.999998, 140.917416)" fill="none" stroke-linejoin="miter" d="M 16.000005 0.000736538 L 24.000006 0.000736538 C 32.838549 0.000736538 40.000008 7.162196 40.000008 16.000739 L 40.000008 24.00074 C 40.000008 32.834074 32.838549 40.000742 24.000006 40.000742 L 16.000005 40.000742 C 7.161462 40.000742 0.00000319333 32.834074 0.00000319333 24.00074 L 0.00000319333 16.000739 C 0.00000319333 7.162196 7.161462 0.000736538 16.000005 0.000736538 Z M 16.000005 0.000736538 " stroke="#E1AC74" stroke-width="20" stroke-opacity="1" stroke-miterlimit="4"/>
</g>
</g>
<g clip-path="url(#f4d7965a1e)">
<g clip-path="url(#9386731e4d)">
<path fill="#E1AC74" d="M 150 140.917969 L 180 140.917969 L 180 170.917969 L 150 170.917969 Z M 150 140.917969 " fill-opacity="1" fill-rule="nonzero"/>
</g>
</g>
<g clip-path="url(#73e55224e1)">
<g clip-path="url(#2a3ed8a1e2)">
<path fill="#E1AC74" d="M 195 140.917969 L 225 140.917969 L 225 170.917969 L 195 170.917969 Z M 195 140.917969 " fill-opacity="1" fill-rule="nonzero"/>
</g>
</g>
<g clip-path="url(#1a26cef41f)">
<g clip-path="url(#d2f2cc55d3)">
<path fill="#E1AC74" d="M 105 185.917969 L 135 185.917969 L 135 215.917969 L 105 215.917969 Z M 105 185.917969 " fill-opacity="1" fill-rule="nonzero"/>
</g>
</g>
<g clip-path="url(#eef5d56cb4)">
<g clip-path="url(#40ef190ac6)">
<path fill="#E1AC74" d="M 150 185.917969 L 180 185.917969 L 180 215.917969 L 150 215.917969 Z M 150 185.917969 " fill-opacity="1" fill-rule="nonzero"/>
</g>
</g>
<g clip-path="url(#a76a05480f)">
<g clip-path="url(#df8c6b9a09)">
<path stroke-linecap="butt" transform="matrix(0.75, 0, 0, 0.75, 194.999992, 185.917413)" fill="none" stroke-linejoin="miter" d="M 16.000013 0.000740478 L 24.000014 0.000740478 C 32.838557 0.000740478 40.000016 7.1622 40.000016 16.000743 L 40.000016 24.000744 C 40.000016 32.834078 32.838557 40.000746 24.000014 40.000746 L 16.000013 40.000746 C 7.16147 40.000746 0.0000110733 32.834078 0.0000110733 24.000744 L 0.0000110733 16.000743 C 0.0000110733 7.1622 7.16147 0.000740478 16.000013 0.000740478 Z M 16.000013 0.000740478 " stroke="#E1AC74" stroke-width="20" stroke-opacity="1" stroke-miterlimit="4"/>
</g>
</g>
<g clip-path="url(#b264df88a3)">
<g clip-path="url(#41eae1a322)">
<path fill="#E1AC74" d="M 240 95.917969 L 270 95.917969 L 270 125.917969 L 240 125.917969 Z M 240 95.917969 " fill-opacity="1" fill-rule="nonzero"/>
</g>
</g>
<g clip-path="url(#0c62d6077e)">
<g clip-path="url(#68698e077e)">
<path stroke-linecap="butt" transform="matrix(0.75, 0, 0, 0.75, 284.999986, 95.917429)" fill="none" stroke-linejoin="miter" d="M 16.000021 0.000719798 L 24.000022 0.000719798 C 32.838565 0.000719798 40.000024 7.162179 40.000024 16.000722 L 40.000024 24.000723 C 40.000024 32.834057 32.838565 40.000725 24.000022 40.000725 L 16.000021 40.000725 C 7.161478 40.000725 0.0000189533 32.834057 0.0000189533 24.000723 L 0.0000189533 16.000722 C 0.0000189533 7.162179 7.161478 0.000719798 16.000021 0.000719798 Z M 16.000021 0.000719798 " stroke="#E1AC74" stroke-width="20" stroke-opacity="1" stroke-miterlimit="4"/>
</g>
</g>
<g clip-path="url(#b5d3411930)">
<g clip-path="url(#de94aefb39)">
<path fill="#E1AC74" d="M 240 140.917969 L 270 140.917969 L 270 170.917969 L 240 170.917969 Z M 240 140.917969 " fill-opacity="1" fill-rule="nonzero"/>
</g>
</g>
<g clip-path="url(#aa29bb9734)">
<g clip-path="url(#ae7f8ac0de)">
<path fill="#E1AC74" d="M 285 140.917969 L 315 140.917969 L 315 170.917969 L 285 170.917969 Z M 285 140.917969 " fill-opacity="1" fill-rule="nonzero"/>
</g>
</g>
<g clip-path="url(#dadad7dbdc)">
<g clip-path="url(#0607c8f620)">
<path fill="#E1AC74" d="M 240 185.917969 L 270 185.917969 L 270 215.917969 L 240 215.917969 Z M 240 185.917969 " fill-opacity="1" fill-rule="nonzero"/>
</g>
</g>
<g clip-path="url(#276e61c896)">
<g clip-path="url(#606e554053)">
<path fill="#E1AC74" d="M 285 185.917969 L 315 185.917969 L 315 215.917969 L 285 215.917969 Z M 285 185.917969 " fill-opacity="1" fill-rule="nonzero"/>
</g>
</g>
<g clip-path="url(#b7a3308e08)">
<g clip-path="url(#065ce6011c)">
<path fill="#E1AC74" d="M 60 95.917969 L 90 95.917969 L 90 125.917969 L 60 125.917969 Z M 60 95.917969 " fill-opacity="1" fill-rule="nonzero"/>
</g>
</g>
<g clip-path="url(#082d56d78a)">
<g clip-path="url(#c425b0c894)">
<path fill="#E1AC74" d="M 60 140.917969 L 90 140.917969 L 90 170.917969 L 60 170.917969 Z M 60 140.917969 " fill-opacity="1" fill-rule="nonzero"/>
</g>
</g>
<g clip-path="url(#14413ae12d)">
<g clip-path="url(#93fc62d110)">
<path fill="#E1AC74" d="M 60 185.917969 L 90 185.917969 L 90 215.917969 L 60 215.917969 Z M 60 185.917969 " fill-opacity="1" fill-rule="nonzero"/>
</g>
</g>
<g clip-path="url(#6aa5053e89)">
<g clip-path="url(#9384c869e0)">
<path fill="#E1AC74" d="M 105 230.917969 L 135 230.917969 L 135 260.917969 L 105 260.917969 Z M 105 230.917969 " fill-opacity="1" fill-rule="nonzero"/>
</g>
</g>
<g clip-path="url(#0ec5689c41)">
<g clip-path="url(#dad170f847)">
<path fill="#E1AC74" d="M 150 230.917969 L 180 230.917969 L 180 260.917969 L 150 260.917969 Z M 150 230.917969 " fill-opacity="1" fill-rule="nonzero"/>
</g>
</g>
<g clip-path="url(#bec815ab11)">
<g clip-path="url(#a1dd622056)">
<path fill="#E1AC74" d="M 195 230.917969 L 225 230.917969 L 225 260.917969 L 195 260.917969 Z M 195 230.917969 " fill-opacity="1" fill-rule="nonzero"/>
</g>
</g>
<g clip-path="url(#6a5a1bc177)">
<g clip-path="url(#3b1d8f2afd)">
<path fill="#E1AC74" d="M 240 230.917969 L 270 230.917969 L 270 260.917969 L 240 260.917969 Z M 240 230.917969 " fill-opacity="1" fill-rule="nonzero"/>
</g>
</g>
<g clip-path="url(#9637e7d22c)">
<g clip-path="url(#92e4e92ae9)">
<path fill="#E1AC74" d="M 285 230.917969 L 315 230.917969 L 315 260.917969 L 285 260.917969 Z M 285 230.917969 " fill-opacity="1" fill-rule="nonzero"/>
</g>
</g>
<g clip-path="url(#440f88b97f)">
<g clip-path="url(#e05e1949d2)">
<path fill="#E1AC74" d="M 60 230.917969 L 90 230.917969 L 90 260.917969 L 60 260.917969 Z M 60 230.917969 " fill-opacity="1" fill-rule="nonzero"/>
</g>
</g>

</svg>
